<svg version="1.1" id="Layer_1" xmlns="http://www.w3.org/2000/svg" xmlns:xlink="http://www.w3.org/1999/xlink" x="0px" y="0px"
	 width="100%" viewBox="0 0 512 512" enable-background="new 0 0 512 512" xml:space="preserve">
<path fill="none" opacity="1.000000" stroke="none" 
	d="
M280.000000,513.000000 
	C186.689316,513.000000 93.878632,513.000000 1.033972,513.000000 
	C1.033972,342.397614 1.033972,171.795242 1.033972,1.096426 
	C171.560699,1.096426 342.121490,1.096426 512.841125,1.096426 
	C512.841125,171.666550 512.841125,342.333252 512.841125,513.000000 
	C435.461884,513.000000 357.980927,513.000000 280.000000,513.000000 
M27.009167,257.896698 
	C27.988113,269.218079 28.746990,280.563721 29.993923,291.855530 
	C32.268028,312.449036 38.526958,332.010864 46.993355,350.775146 
	C60.093872,379.810242 78.213745,405.246918 102.001877,426.739349 
	C121.809448,444.635345 143.770645,458.816742 168.315674,469.145264 
	C195.635559,480.641449 224.219986,486.274689 253.738678,486.946930 
	C271.900696,487.360535 289.826294,484.998718 307.645996,481.179840 
	C332.726288,475.804993 356.009583,466.170258 377.678467,452.745392 
	C396.097839,441.333649 412.834961,427.800812 427.296478,411.429047 
	C440.027710,397.016235 451.205811,381.661072 460.167816,364.652802 
	C471.455109,343.231537 479.857178,320.803345 483.098297,296.735565 
	C484.873657,283.552277 485.639404,270.233063 486.967987,256.059082 
	C485.985840,244.744873 485.251099,233.402512 483.967804,222.122574 
	C481.615265,201.444244 475.403992,181.735840 466.843445,162.916443 
	C453.697662,134.016800 435.593628,108.621574 411.865936,87.194374 
	C392.125488,69.367859 370.191498,55.307465 345.773499,44.922012 
	C318.212280,33.199654 289.358459,27.627111 259.549316,27.131973 
	C249.519043,26.965370 239.342316,27.577429 229.447769,29.170458 
	C214.775375,31.532722 199.902847,33.867237 185.817490,38.396538 
	C159.895935,46.731895 136.075089,59.390175 114.597527,76.549026 
	C97.436966,90.258926 82.489769,105.822197 69.749092,123.607162 
	C54.218021,145.287338 42.849983,168.975967 35.689075,194.671143 
	C30.010237,215.048279 27.066690,235.804581 27.009167,257.896698 
z"/>
<path fill="#4CAF50" opacity="1.000000" stroke="none" 
	d="
M27.140024,256.972931 
	C27.066690,235.804581 30.010237,215.048279 35.689075,194.671143 
	C42.849983,168.975967 54.218021,145.287338 69.749092,123.607162 
	C82.489769,105.822197 97.436966,90.258926 114.597527,76.549026 
	C136.075089,59.390175 159.895935,46.731895 185.817490,38.396538 
	C199.902847,33.867237 214.775375,31.532722 229.447769,29.170458 
	C239.342316,27.577429 249.519043,26.965370 259.549316,27.131973 
	C289.358459,27.627111 318.212280,33.199654 345.773499,44.922012 
	C370.191498,55.307465 392.125488,69.367859 411.865936,87.194374 
	C435.593628,108.621574 453.697662,134.016800 466.843445,162.916443 
	C475.403992,181.735840 481.615265,201.444244 483.967804,222.122574 
	C485.251099,233.402512 485.985840,244.744873 486.454651,256.523987 
	C454.148193,256.985046 422.355072,256.981140 390.429932,256.953491 
	C390.297913,256.929718 390.034607,256.981140 390.090302,256.580444 
	C389.967468,249.416382 385.955566,245.332977 380.577942,241.983749 
	C348.498901,222.004547 316.467590,201.948730 284.418884,181.920792 
	C260.559021,167.010254 236.756592,152.006622 212.810181,137.236420 
	C201.414917,130.207794 187.948120,136.996796 187.872818,150.001770 
	C187.666382,185.658005 187.878036,221.316666 187.738129,257.004883 
	C187.552063,257.035370 187.175827,257.060577 186.696289,257.048248 
	C133.191162,257.014923 80.165596,256.993927 27.140024,256.972931 
z"/>
<path fill="#39943C" opacity="1.000000" stroke="none" 
	d="
M390.561920,256.977234 
	C422.355072,256.981140 454.148193,256.985046 486.400879,256.982025 
	C485.639404,270.233063 484.873657,283.552277 483.098297,296.735565 
	C479.857178,320.803345 471.455109,343.231537 460.167816,364.652802 
	C451.205811,381.661072 440.027710,397.016235 427.296478,411.429047 
	C412.834961,427.800812 396.097839,441.333649 377.678467,452.745392 
	C356.009583,466.170258 332.726288,475.804993 307.645996,481.179840 
	C289.826294,484.998718 271.900696,487.360535 253.738678,486.946930 
	C224.219986,486.274689 195.635559,480.641449 168.315674,469.145264 
	C143.770645,458.816742 121.809448,444.635345 102.001877,426.739349 
	C78.213745,405.246918 60.093872,379.810242 46.993355,350.775146 
	C38.526958,332.010864 32.268028,312.449036 29.993923,291.855530 
	C28.746990,280.563721 27.988113,269.218079 27.074596,257.434814 
	C80.165596,256.993927 133.191162,257.014923 186.764435,257.508179 
	C187.324890,292.942413 187.398499,327.904572 187.308807,362.866302 
	C187.285553,371.934204 194.749649,380.478180 203.633255,379.706940 
	C208.004562,379.327423 212.542084,377.155853 216.369354,374.774567 
	C271.079803,340.734253 325.655823,306.477905 380.346771,272.406128 
	C386.285156,268.706573 390.198486,264.137512 390.561920,256.977234 
z"/>
<path fill="#E4E6E7" opacity="1.000000" stroke="none" 
	d="
M390.429932,256.953491 
	C390.198486,264.137512 386.285156,268.706573 380.346771,272.406128 
	C325.655823,306.477905 271.079803,340.734253 216.369354,374.774567 
	C212.542084,377.155853 208.004562,379.327423 203.633255,379.706940 
	C194.749649,380.478180 187.285553,371.934204 187.308807,362.866302 
	C187.398499,327.904572 187.324890,292.942413 187.243988,257.520508 
	C187.175827,257.060577 187.552063,257.035370 188.211609,257.011597 
	C255.925629,256.985596 322.980133,256.983368 390.034607,256.981140 
	C390.034607,256.981140 390.297913,256.929718 390.429932,256.953491 
z"/>
<path fill="#FAFAFA" opacity="1.000000" stroke="none" 
	d="
M390.090302,256.580444 
	C322.980133,256.983368 255.925629,256.985596 188.397675,256.981079 
	C187.878036,221.316666 187.666382,185.658005 187.872818,150.001770 
	C187.948120,136.996796 201.414917,130.207794 212.810181,137.236420 
	C236.756592,152.006622 260.559021,167.010254 284.418884,181.920792 
	C316.467590,201.948730 348.498901,222.004547 380.577942,241.983749 
	C385.955566,245.332977 389.967468,249.416382 390.090302,256.580444 
z"/>
</svg>